# xmcd CD database file
#
# Track frame offsets:
#	150
#	17971
#	46108
#	62308
#	83074
#	99415
#	127345
#	146356
#	169921
#	187073
#	209346
#	230163
#	261650
#	287225
#
# Disc length: 4232 seconds
#
# Revision: 2
# Processed by: cddbd v1.5.2PL0 Copyright (c) Steve Scherf et al.
# Submitted via: CDex 1.51
#
DISCID=d410860e
DTITLE=MAGIC SLIM - THE TEARDROPS - Chicago Blues Session Volume 72(Rough Dried Woman)
DYEAR=2009
DGENRE=Blues
TTITLE0=Rough Dried Woman
TTITLE1=Match Box Blues
TTITLE2=Tell Me What Make A Woman Treat A Good Man So Bad
TTITLE3=Spider In My Stew
TTITLE4=I'm Good
TTITLE5=Bad Avenue
TTITLE6=Mama Talk To Your Daughter
TTITLE7=A'nt It Nice
TTITLE8=Before You Accuse Me
TTITLE9=You Can't Loose What You Ain't Never Had
TTITLE10=Bad Boy
TTITLE11=Blues At Sunrise*
TTITLE12=Stranded On The Highway*
TTITLE13=Hard Luck Blues*
EXTD=YEAR: 2009
EXTT0=
EXTT1=
EXTT2=
EXTT3=
EXTT4=
EXTT5=
EXTT6=
EXTT7=
EXTT8=
EXTT9=
EXTT10=
EXTT11=
EXTT12=
EXTT13=
PLAYORDER=
